HIERARCHY
ROOT Hips
{
  OFFSET -1.00283 91.6471 -3.20329
  CHANNELS 6 Xposition Yposition Zposition Zrotation Xrotation Yrotation
  JOINT LeftHip
  {
    OFFSET 7.742 0 0
    CHANNELS 6 Xposition Yposition Zposition Zrotation Xrotation Yrotation
    JOINT LeftKnee
    {
      OFFSET 0 -41.6894 0
      CHANNELS 6 Xposition Yposition Zposition Zrotation Xrotation Yrotation
      JOINT LeftAnkle
      {
        OFFSET 0 -40.5157 0
        CHANNELS 6 Xposition Yposition Zposition Zrotation Xrotation Yrotation
        End Site
        {
          OFFSET 0 -7.04228 0
        }
      }
    }
  }
  JOINT RightHip
  {
    OFFSET -7.742 0 0
    CHANNELS 6 Xposition Yposition Zposition Zrotation Xrotation Yrotation
    JOINT RightKnee
    {
      OFFSET 0 -41.6894 0
      CHANNELS 6 Xposition Yposition Zposition Zrotation Xrotation Yrotation
      JOINT RightAnkle
      {
        OFFSET 0 -40.5157 0
        CHANNELS 6 Xposition Yposition Zposition Zrotation Xrotation Yrotation
        End Site
        {
          OFFSET 0 -7.04228 0
        }
      }
    }
  }
  JOINT Chest
  {
    OFFSET 0 12.9605 0
    CHANNELS 6 Xposition Yposition Zposition Zrotation Xrotation Yrotation
    JOINT Chest2
    {
      OFFSET 0 14.8294 0
      CHANNELS 6 Xposition Yposition Zposition Zrotation Xrotation Yrotation
      JOINT LeftCollar
      {
        OFFSET 2.39257 9.45743 3.97257
        CHANNELS 6 Xposition Yposition Zposition Zrotation Xrotation Yrotation
        JOINT LeftShoulder
        {
          OFFSET 13.114 0 0
          CHANNELS 6 Xposition Yposition Zposition Zrotation Xrotation Yrotation
          JOINT LeftElbow
          {
            OFFSET 0 -27.2663 0
            CHANNELS 6 Xposition Yposition Zposition Zrotation Xrotation Yrotation
            JOINT LeftWrist
            {
              OFFSET 0 -22.1651 0
              CHANNELS 6 Xposition Yposition Zposition Zrotation Xrotation Yrotation
              End Site
              {
                OFFSET 0 -16.6351 0
              }
            }
          }
        }
      }
      JOINT RightCollar
      {
        OFFSET -2.39257 9.45743 3.97257
        CHANNELS 6 Xposition Yposition Zposition Zrotation Xrotation Yrotation
        JOINT RightShoulder
        {
          OFFSET -13.6783 0 0
          CHANNELS 6 Xposition Yposition Zposition Zrotation Xrotation Yrotation
          JOINT RightElbow
          {
            OFFSET 0 -25.0091 0
            CHANNELS 6 Xposition Yposition Zposition Zrotation Xrotation Yrotation
            JOINT RightWrist
            {
              OFFSET 0 -22.1651 0
              CHANNELS 6 Xposition Yposition Zposition Zrotation Xrotation Yrotation
              End Site
              {
                OFFSET 0 -16.116 0
              }
            }
          }
        }
      }
      JOINT Neck
      {
        OFFSET 0 9.14143 0
        CHANNELS 6 Xposition Yposition Zposition Zrotation Xrotation Yrotation
        JOINT Head
        {
          OFFSET 0 11.7146 0
          CHANNELS 6 Xposition Yposition Zposition Zrotation Xrotation Yrotation
          End Site
          {
            OFFSET 0 9.34459 0
          }
        }
      }
    }
  }
}
MOTION
Frames:	4
Frame Time:	0.00833333
1.00505 91.7667 -0.702955 -0.322295 -3.10384 1.00083 7.742 0 5.01186e-016 1.59452 6.95487 1.93919 0 -41.6894 0 -2.79346 13.7101 2.19464 2.00475e-015 -40.5157 4.00949e-015 1.70735 -17.1429 3.72758 -7.742 -1.6038e-014 -1.00237e-015 0.632945 10.3869 3.8645 0 -41.6894 2.00475e-015 4.2511 6.32575 0.260298 0 -40.5157 4.00949e-015 -5.01218 -13.8292 -10.1795 2.50593e-016 12.9605 -1.00237e-015 -0.0400566 -2.47587 -0.768972 0 14.8294 1.00237e-015 1.61324 -0.471576 -1.08279 2.39257 9.45743 3.97257 28.7287 0.159487 1.44068 13.114 3.20759e-014 0 59.3117 0.371354 2.1708 -3.20759e-014 -27.2663 -4.00949e-015 1.42541 3.37011e-006 -4.44503 0 -22.1651 0 2.55048 4.35471 -0.0573857 -2.39257 9.45743 3.97257 -31.3501 -0.832768 1.82273 -13.6783 3.20759e-014 0 -55.2721 -0.566803 -2.4673 0 -25.0091 4.00949e-015 -0.450283 -0.141016 5.90879 1.6038e-014 -22.1651 -1.00237e-015 3.61074 6.66026 -0.152714 0 9.14143 0 -1.69314 27.3356 1.91675 2.50593e-016 11.7146 0 -0.340448 -19.0344 1.17161 
1.01687 91.7656 -0.695156 -0.336979 -3.13647 0.996961 7.742 -1.6038e-014 0 1.59534 7.00327 1.85412 0 -41.6894 -1.00237e-015 -2.80212 13.6874 2.25016 0 -40.5157 2.00475e-015 1.71995 -17.1508 3.75882 -7.742 0 1.50356e-015 0.643729 10.4203 3.9164 0 -41.6894 -2.00475e-015 4.24982 6.33097 0.223209 7.5178e-016 -40.5157 0 -5.01685 -13.8295 -10.1903 1.25297e-016 12.9605 5.01186e-016 -0.0311992 -2.48358 -0.757517 -6.26483e-017 14.8294 0 1.63136 -0.460836 -1.07553 2.39257 9.45743 3.97257 28.7389 0.159181 1.43895 13.114 0 -2.00475e-015 59.3209 0.372763 2.16894 -1.6038e-014 -27.2663 -4.00949e-015 1.42552 3.37011e-006 -4.45853 0 -22.1651 -2.00475e-015 2.54453 4.3645 -0.0573753 -2.39257 9.45743 3.97257 -31.3415 -0.8309 1.81659 -13.6783 1.6038e-014 2.00475e-015 -55.2636 -0.579339 -2.44658 0 -25.0091 0 -0.4537 -0.148177 5.90906 0 -22.1651 0 3.59342 6.67421 -0.152139 0 9.14143 -2.00475e-015 -0.91839 27.5643 1.5391 5.01186e-016 11.7146 8.01898e-015 -1.29158 -19.2247 1.24055 
1.0287 91.7644 -0.687367 -0.351766 -3.16934 0.994233 7.742 3.20759e-014 -1.00237e-015 1.59621 7.05235 1.76342 0 -41.6894 0 -2.81131 13.6634 2.30875 2.00475e-015 -40.5157 2.00475e-015 1.73327 -17.1589 3.79178 -7.742 1.6038e-014 -5.01186e-016 0.654937 10.4544 3.96913 0 -41.6894 0 4.24824 6.33513 0.184921 -2.50593e-016 -40.5157 0 -5.02172 -13.8295 -10.2016 1.87945e-016 12.9605 0 -0.0227064 -2.49151 -0.746301 -6.26483e-017 14.8294 1.00237e-015 1.65001 -0.449046 -1.06859 2.39257 9.45743 3.97257 28.7498 0.158799 1.43689 13.114 1.6038e-014 0 59.3307 0.373926 2.16766 1.6038e-014 -27.2663 0 1.42571 3.37011e-006 -4.47287 1.6038e-014 -22.1651 -2.00475e-015 2.53684 4.37443 -0.0573004 -2.39257 9.45743 3.97257 -31.3329 -0.828824 1.80971 -13.6783 3.20759e-014 2.00475e-015 -55.2552 -0.591059 -2.42309 1.6038e-014 -25.0091 -4.00949e-015 -0.457704 -0.156541 5.90846 0 -22.1651 1.00237e-015 3.57548 6.68895 -0.151552 5.01186e-016 9.14143 -2.00475e-015 -0.0608528 27.8142 1.12013 0 11.7146 8.01898e-015 -2.34111 -19.4403 1.31565 
1.04052 91.7633 -0.679557 -0.36636 -3.20172 0.989226 7.742 0 1.00237e-015 1.59742 7.10002 1.68393 2.00475e-015 -41.6894 1.00237e-015 -2.81931 13.6419 2.36118 2.00475e-015 -40.5157 0 1.7452 -17.1667 3.82129 -7.742 0 5.01186e-016 0.66511 10.4869 4.02026 0 -41.6894 -2.00475e-015 4.24728 6.3414 0.149029 2.50593e-016 -40.5157 0 -5.02619 -13.8302 -10.2119 2.50593e-016 12.9605 0 -0.0134752 -2.499 -0.734609 6.26483e-017 14.8294 1.00237e-015 1.66758 -0.439357 -1.06101 2.39257 9.45743 3.97257 28.7594 0.158568 1.4355 13.114 -1.6038e-014 -4.00949e-015 59.3391 0.375581 2.16522 3.20759e-014 -27.2663 0 1.42575 3.37011e-006 -4.48555 0 -22.1651 0 2.53264 4.38408 -0.0573545 -2.39257 9.45743 3.97257 -31.3242 -0.827162 1.80431 -13.6783 6.41519e-014 0 -55.2467 -0.604413 -2.40515 0 -25.0091 4.00949e-015 -0.460535 -0.1625 5.90959 -1.6038e-014 -22.1651 1.00237e-015 3.55876 6.70213 -0.150988 0 9.14143 -2.00475e-015 0.64126 28.0189 0.77914 0 11.7146 -8.01898e-015 -3.19238 -19.6052 1.37895 
